%TF.GenerationSoftware,KiCad,Pcbnew,10.0.1*%
%TF.CreationDate,2026-04-30T01:53:31-04:00*%
%TF.ProjectId,gio pcb,67696f20-7063-4622-9e6b-696361645f70,rev?*%
%TF.SameCoordinates,Original*%
%TF.FileFunction,Legend,Top*%
%TF.FilePolarity,Positive*%
%FSLAX46Y46*%
G04 Gerber Fmt 4.6, Leading zero omitted, Abs format (unit mm)*
G04 Created by KiCad (PCBNEW 10.0.1) date 2026-04-30 01:53:31*
%MOMM*%
%LPD*%
G01*
G04 APERTURE LIST*
%ADD10C,0.150000*%
%ADD11C,0.120000*%
G04 APERTURE END LIST*
D10*
X109908095Y-70549819D02*
X109908095Y-71359342D01*
X109908095Y-71359342D02*
X109955714Y-71454580D01*
X109955714Y-71454580D02*
X110003333Y-71502200D01*
X110003333Y-71502200D02*
X110098571Y-71549819D01*
X110098571Y-71549819D02*
X110289047Y-71549819D01*
X110289047Y-71549819D02*
X110384285Y-71502200D01*
X110384285Y-71502200D02*
X110431904Y-71454580D01*
X110431904Y-71454580D02*
X110479523Y-71359342D01*
X110479523Y-71359342D02*
X110479523Y-70549819D01*
X111479523Y-71549819D02*
X110908095Y-71549819D01*
X111193809Y-71549819D02*
X111193809Y-70549819D01*
X111193809Y-70549819D02*
X111098571Y-70692676D01*
X111098571Y-70692676D02*
X111003333Y-70787914D01*
X111003333Y-70787914D02*
X110908095Y-70835533D01*
X140738095Y-74579819D02*
X140738095Y-75389342D01*
X140738095Y-75389342D02*
X140785714Y-75484580D01*
X140785714Y-75484580D02*
X140833333Y-75532200D01*
X140833333Y-75532200D02*
X140928571Y-75579819D01*
X140928571Y-75579819D02*
X141119047Y-75579819D01*
X141119047Y-75579819D02*
X141214285Y-75532200D01*
X141214285Y-75532200D02*
X141261904Y-75484580D01*
X141261904Y-75484580D02*
X141309523Y-75389342D01*
X141309523Y-75389342D02*
X141309523Y-74579819D01*
X141738095Y-74675057D02*
X141785714Y-74627438D01*
X141785714Y-74627438D02*
X141880952Y-74579819D01*
X141880952Y-74579819D02*
X142119047Y-74579819D01*
X142119047Y-74579819D02*
X142214285Y-74627438D01*
X142214285Y-74627438D02*
X142261904Y-74675057D01*
X142261904Y-74675057D02*
X142309523Y-74770295D01*
X142309523Y-74770295D02*
X142309523Y-74865533D01*
X142309523Y-74865533D02*
X142261904Y-75008390D01*
X142261904Y-75008390D02*
X141690476Y-75579819D01*
X141690476Y-75579819D02*
X142309523Y-75579819D01*
X147824819Y-63666666D02*
X147348628Y-63999999D01*
X147824819Y-64238094D02*
X146824819Y-64238094D01*
X146824819Y-64238094D02*
X146824819Y-63857142D01*
X146824819Y-63857142D02*
X146872438Y-63761904D01*
X146872438Y-63761904D02*
X146920057Y-63714285D01*
X146920057Y-63714285D02*
X147015295Y-63666666D01*
X147015295Y-63666666D02*
X147158152Y-63666666D01*
X147158152Y-63666666D02*
X147253390Y-63714285D01*
X147253390Y-63714285D02*
X147301009Y-63761904D01*
X147301009Y-63761904D02*
X147348628Y-63857142D01*
X147348628Y-63857142D02*
X147348628Y-64238094D01*
X146920057Y-63285713D02*
X146872438Y-63238094D01*
X146872438Y-63238094D02*
X146824819Y-63142856D01*
X146824819Y-63142856D02*
X146824819Y-62904761D01*
X146824819Y-62904761D02*
X146872438Y-62809523D01*
X146872438Y-62809523D02*
X146920057Y-62761904D01*
X146920057Y-62761904D02*
X147015295Y-62714285D01*
X147015295Y-62714285D02*
X147110533Y-62714285D01*
X147110533Y-62714285D02*
X147253390Y-62761904D01*
X147253390Y-62761904D02*
X147824819Y-63333332D01*
X147824819Y-63333332D02*
X147824819Y-62714285D01*
X139824819Y-63586666D02*
X139348628Y-63919999D01*
X139824819Y-64158094D02*
X138824819Y-64158094D01*
X138824819Y-64158094D02*
X138824819Y-63777142D01*
X138824819Y-63777142D02*
X138872438Y-63681904D01*
X138872438Y-63681904D02*
X138920057Y-63634285D01*
X138920057Y-63634285D02*
X139015295Y-63586666D01*
X139015295Y-63586666D02*
X139158152Y-63586666D01*
X139158152Y-63586666D02*
X139253390Y-63634285D01*
X139253390Y-63634285D02*
X139301009Y-63681904D01*
X139301009Y-63681904D02*
X139348628Y-63777142D01*
X139348628Y-63777142D02*
X139348628Y-64158094D01*
X139824819Y-62634285D02*
X139824819Y-63205713D01*
X139824819Y-62919999D02*
X138824819Y-62919999D01*
X138824819Y-62919999D02*
X138967676Y-63015237D01*
X138967676Y-63015237D02*
X139062914Y-63110475D01*
X139062914Y-63110475D02*
X139110533Y-63205713D01*
X141583333Y-84809580D02*
X141535714Y-84857200D01*
X141535714Y-84857200D02*
X141392857Y-84904819D01*
X141392857Y-84904819D02*
X141297619Y-84904819D01*
X141297619Y-84904819D02*
X141154762Y-84857200D01*
X141154762Y-84857200D02*
X141059524Y-84761961D01*
X141059524Y-84761961D02*
X141011905Y-84666723D01*
X141011905Y-84666723D02*
X140964286Y-84476247D01*
X140964286Y-84476247D02*
X140964286Y-84333390D01*
X140964286Y-84333390D02*
X141011905Y-84142914D01*
X141011905Y-84142914D02*
X141059524Y-84047676D01*
X141059524Y-84047676D02*
X141154762Y-83952438D01*
X141154762Y-83952438D02*
X141297619Y-83904819D01*
X141297619Y-83904819D02*
X141392857Y-83904819D01*
X141392857Y-83904819D02*
X141535714Y-83952438D01*
X141535714Y-83952438D02*
X141583333Y-84000057D01*
X142535714Y-84904819D02*
X141964286Y-84904819D01*
X142250000Y-84904819D02*
X142250000Y-83904819D01*
X142250000Y-83904819D02*
X142154762Y-84047676D01*
X142154762Y-84047676D02*
X142059524Y-84142914D01*
X142059524Y-84142914D02*
X141964286Y-84190533D01*
%TO.C,U1*%
D11*
X109130000Y-71875000D02*
X127370000Y-71875000D01*
X109130000Y-90695000D02*
X109130000Y-91315000D01*
X109130000Y-91315000D02*
X110130000Y-91315000D01*
X127370000Y-71875000D02*
X127370000Y-72295000D01*
X127370000Y-90695000D02*
X127370000Y-91315000D01*
X127370000Y-91315000D02*
X126370000Y-91315000D01*
X109125000Y-72620000D02*
X108625000Y-72620000D01*
X109125000Y-72120000D01*
X109125000Y-72620000D01*
G36*
X109125000Y-72620000D02*
G01*
X108625000Y-72620000D01*
X109125000Y-72120000D01*
X109125000Y-72620000D01*
G37*
%TO.C,U2*%
X139350000Y-76815000D02*
X139350000Y-76590000D01*
X139350000Y-80650000D02*
X139350000Y-80125000D01*
X139350000Y-80650000D02*
X139875000Y-80650000D01*
X139875000Y-76350000D02*
X139650000Y-76350000D01*
X143650000Y-76350000D02*
X143125000Y-76350000D01*
X143650000Y-76350000D02*
X143650000Y-76875000D01*
X143650000Y-80650000D02*
X143125000Y-80650000D01*
X143650000Y-80650000D02*
X143650000Y-80125000D01*
X139350000Y-76350000D02*
X139110000Y-76020000D01*
X139590000Y-76020000D01*
X139350000Y-76350000D01*
G36*
X139350000Y-76350000D02*
G01*
X139110000Y-76020000D01*
X139590000Y-76020000D01*
X139350000Y-76350000D01*
G37*
%TO.C,R2*%
X145000000Y-59460000D02*
X145000000Y-60230000D01*
X145000000Y-67540000D02*
X145000000Y-66770000D01*
X143630000Y-60230000D02*
X146370000Y-60230000D01*
X146370000Y-66770000D01*
X143630000Y-66770000D01*
X143630000Y-60230000D01*
%TO.C,R1*%
X137000000Y-59380000D02*
X137000000Y-60150000D01*
X137000000Y-67460000D02*
X137000000Y-66690000D01*
X135630000Y-60150000D02*
X138370000Y-60150000D01*
X138370000Y-66690000D01*
X135630000Y-66690000D01*
X135630000Y-60150000D01*
%TO.C,C1*%
X140985000Y-85580000D02*
X142515000Y-85580000D01*
X142515000Y-87420000D02*
X140985000Y-87420000D01*
%TD*%
M02*
